<svg xmlns="http://www.w3.org/2000/svg" viewBox="0 0 1921 99"><defs><style>.cls-1{fill:#bc723f;}.cls-2{fill:#fff;}.cls-3{fill:#ccc;}.cls-4{fill:#afafaf;}</style></defs><title>horse-race</title><g id="_3" data-name="3"><polygon class="cls-1" points="1854 99 82 99 255.46 0 1664.96 0 1854 99"/><polygon points="1921 0 1666 0 1855 99 1921 99 1921 0"/><polygon class="cls-2" points="1747 0 1666 0 1723 30 1801 30 1747 0"/><polygon points="1826 0 1747 0 1801 30 1878 30 1826 0"/><polygon class="cls-2" points="1864 65 1792 66 1855 99 1921 99 1864 65"/><polygon points="1801 30 1723 30 1792 66 1864 65 1801 30"/><polygon points="1921 99 1921 65 1864 65 1921 99"/><polygon points="1921 30 1921 54 1878 30 1921 30"/><polygon class="cls-2" points="1921 0 1825.35 0 1878 30 1921 30 1921 0"/><polygon class="cls-2" points="1921 53.52 1878 30 1801 30 1864 65 1921 65 1921 53.52"/><polygon points="1921 0 1893 0 1921 17.73 1921 0"/><polygon class="cls-3" points="259 0 0 0 0 99 82 99 259 0"/><path class="cls-4" d="M85.33,57.76Q78,55.61,76.15,47.82q-1.65-6.76-3.44-8.76Q69.86,36,62.26,35.93a44.49,44.49,0,0,0-12.32,1.66A25.52,25.52,0,0,0,40,42.52q-5.19,4.41-.53,6.06c1.8.63,5.36,1,10.7,1.18l-11,9.41Q27,58.84,21.73,56.74q-10-4,1.55-13.88Q32.45,35,46.44,30.48A87.9,87.9,0,0,1,74.56,26Q85.39,26.1,90,29.43c2,1.45,3.44,3.83,4.19,7.13l.9,3.92a23.07,23.07,0,0,0,1.56,5,5.56,5.56,0,0,0,2.66,2.3l29.41-20,16.89.12L101.83,60.18Q91.5,60,85.33,57.76Z"/></g></svg>