<svg xmlns="http://www.w3.org/2000/svg" viewBox="0 0 276.42 107.12"><defs><style>.cls-1{fill:#777b82;}</style></defs><title>logo</title><g id="_2" data-name="2"><path class="cls-1" d="M236.17,45.28c1-2.5-1.6-5.24-2.69-7.28s-18.21-11.42-18.43-12.27,5.28-30.24.94-23.32l-7.72,12.32S209.49-4.35,205.19.92l-8.53,10.42s-48.12-17.62-77.9,5.25c18.18-7.56,45-4.31,38.68-.81C120.64,21.07,94.83,32,92.1,40.44c15-8.19,39-9.94,34.69-5.64S94.48,49.92,49.27,46.59c2.89,14.62,43.2,10.49,43.2,10.49S33.1,66.82,27.59,88.32C39,80.3,69.45,69.1,71.05,76.81c-9.85,11.67-55.82,23-71,18.51,7.8,9.53,38.16,13.55,60,4.51,25.13-6.61,35.88,7,52.07,2.69C139.46,95.2,160,65,196.47,82.88a22.82,22.82,0,0,0,18.25.68c11.9,6.17,31.89,9.25,33.28,12.84s8.19,11.3,11.9,10.69,13.69-5,13.38-7.49.3-8.54,3-10.15S235.15,47.78,236.17,45.28Z"/></g></svg>