<svg xmlns="http://www.w3.org/2000/svg" viewBox="0 0 1919 99"><defs><style>.cls-1{fill:#bc723f;}.cls-2{fill:#fff;}.cls-3{fill:#ccc;}.cls-4{fill:#afafaf;}</style></defs><title>horse-race</title><g id="_3" data-name="3"><polygon class="cls-1" points="1854 99 82 99 255.46 0 1664.96 0 1854 99"/><polygon points="1919 0 1664 0 1853 99 1919 99 1919 0"/><polygon class="cls-2" points="1745 0 1664 0 1721 30 1799 30 1745 0"/><polygon points="1824 0 1745 0 1799 30 1876 30 1824 0"/><polygon class="cls-2" points="1862 65 1790 66 1853 99 1919 99 1862 65"/><polygon points="1799 30 1721 30 1790 66 1862 65 1799 30"/><polygon points="1919 99 1919 65 1862 65 1919 99"/><polygon points="1919 30 1919 54 1876 30 1919 30"/><polygon class="cls-2" points="1919 0 1823.35 0 1876 30 1919 30 1919 0"/><polygon class="cls-2" points="1919 53.52 1876 30 1799 30 1862 65 1919 65 1919 53.52"/><polygon points="1919 0 1891 0 1919 17.73 1919 0"/><polygon class="cls-3" points="259 0 0 0 0 99 82 99 259 0"/><path class="cls-4" d="M86.67,52.45a54.9,54.9,0,0,0,12-1.37q10.17-2.41,16.2-8.57Q118.59,38.75,117,36t-9.66-2.69A37.77,37.77,0,0,0,88,38.64,60.17,60.17,0,0,0,76.77,48l-15.3.15c4-4.15,6.14-7,6.51-8.68q1-4.23-8.58-4.13a36.27,36.27,0,0,0-12.25,2.28,26.23,26.23,0,0,0-9.91,6.17q-4.44,4.53-1.73,6.62t10.82,1.91l-11.74,12a61.91,61.91,0,0,1-13.74-1.5A12.07,12.07,0,0,1,13.92,58a6.76,6.76,0,0,1,0-5.92q1.37-3.45,6.31-8.48A69.51,69.51,0,0,1,43.09,28.39a71.17,71.17,0,0,1,27.25-6q9.6-.09,12.85,3.26a4.19,4.19,0,0,1,1.21,4.45q1.72-1.76,10-5.1a69.71,69.71,0,0,1,25.51-5.11q13.8-.13,18.64,5.49t-6.18,16.87Q118.77,56.15,98.4,61.69a105.41,105.41,0,0,1-24.08,3.36Z"/></g></svg>