<svg xmlns="http://www.w3.org/2000/svg" viewBox="0 0 1919 99"><defs><style>.cls-1{fill:#bc723f;}.cls-2{fill:#fff;}.cls-3{fill:#ccc;}.cls-4{fill:#afafaf;}</style></defs><title>horse-race</title><g id="_3" data-name="3"><polygon class="cls-1" points="1854 99 82 99 255.46 0 1664.96 0 1854 99"/><polygon points="1919 0 1664 0 1853 99 1919 99 1919 0"/><polygon class="cls-2" points="1745 0 1664 0 1721 30 1799 30 1745 0"/><polygon points="1824 0 1745 0 1799 30 1876 30 1824 0"/><polygon class="cls-2" points="1862 65 1790 66 1853 99 1919 99 1862 65"/><polygon points="1799 30 1721 30 1790 66 1862 65 1799 30"/><polygon points="1919 99 1919 65 1862 65 1919 99"/><polygon points="1919 30 1919 54 1876 30 1919 30"/><polygon class="cls-2" points="1919 0 1823.35 0 1876 30 1919 30 1919 0"/><polygon class="cls-2" points="1919 53.52 1876 30 1799 30 1862 65 1919 65 1919 53.52"/><polygon points="1919 0 1891 0 1919 17.73 1919 0"/><polygon class="cls-3" points="259 0 0 0 0 99 82 99 259 0"/><path class="cls-4" d="M36.41,59.45l-13.54-.29a77,77,0,0,0,7.5-7.62c1.77-2.33,2.17-4.24,1.18-5.75-.67-1-2.22-1.83-4.66-2.4a19.3,19.3,0,0,0-3.54-.53l11.06-9.59,108.4,1.89L122,47.15,52.25,45.7Z"/></g></svg>