<svg xmlns="http://www.w3.org/2000/svg" viewBox="0 0 1921 99"><defs><style>.cls-1{fill:#bc723f;}.cls-2{fill:#fff;}.cls-3{fill:#ccc;}.cls-4{fill:#afafaf;}</style></defs><title>horse-race</title><g id="_3" data-name="3"><polygon class="cls-1" points="1854 99 82 99 255.46 0 1664.96 0 1854 99"/><polygon points="1921 0 1666 0 1855 99 1921 99 1921 0"/><polygon class="cls-2" points="1747 0 1666 0 1723 30 1801 30 1747 0"/><polygon points="1826 0 1747 0 1801 30 1878 30 1826 0"/><polygon class="cls-2" points="1864 65 1792 66 1855 99 1921 99 1864 65"/><polygon points="1801 30 1723 30 1792 66 1864 65 1801 30"/><polygon points="1921 99 1921 65 1864 65 1921 99"/><polygon points="1921 30 1921 54 1878 30 1921 30"/><polygon class="cls-2" points="1921 0 1825.35 0 1878 30 1921 30 1921 0"/><polygon class="cls-2" points="1921 53.52 1878 30 1801 30 1864 65 1921 65 1921 53.52"/><polygon points="1921 0 1893 0 1921 17.73 1921 0"/><polygon class="cls-3" points="259 0 0 0 0 99 82 99 259 0"/><path class="cls-4" d="M121.26,24.57l-7.49,7,23.16.81L124.19,44.23,101,43.42,74.83,67.85l-18.48-.64-41-25L30,28.61,97.22,31l7.49-7ZM84.48,42.84,38.13,41.22,68,58.25Z"/></g></svg>