<svg xmlns="http://www.w3.org/2000/svg" viewBox="0 0 276.42 198.42"><defs><style>.cls-1,.cls-2{fill:#777b82;}.cls-2{font-size:46px;font-family:Anton-Regular, Anton;}</style></defs><title>logo</title><g id="_2" data-name="2"><path class="cls-1" d="M236.17,45.28c1-2.5-1.6-5.24-2.69-7.28s-18.21-11.42-18.43-12.27,5.28-30.24.94-23.32l-7.72,12.32S209.49-4.35,205.19.92l-8.53,10.42s-48.12-17.62-77.9,5.25c18.18-7.56,45-4.31,38.68-.81C120.64,21.07,94.83,32,92.1,40.44c15-8.19,39-9.94,34.69-5.64S94.48,49.92,49.27,46.59c2.89,14.62,43.2,10.49,43.2,10.49S33.1,66.82,27.59,88.32C39,80.3,69.45,69.1,71.05,76.81c-9.85,11.67-55.82,23-71,18.51,7.8,9.53,38.16,13.55,60,4.51,25.13-6.61,35.88,7,52.07,2.69C139.46,95.2,160,65,196.47,82.88a22.82,22.82,0,0,0,18.25.68c11.9,6.17,31.89,9.25,33.28,12.84s8.19,11.3,11.9,10.69,13.69-5,13.38-7.49.3-8.54,3-10.15S235.15,47.78,236.17,45.28Z"/><text class="cls-2" transform="translate(50.53 168.42)">Horse Race</text><path class="cls-1" d="M69.61,186.34a.4.4,0,0,1,.09-.27A.33.33,0,0,1,70,186H75.3a4.06,4.06,0,0,1,1.59.31,4.22,4.22,0,0,1,1.29.86,4,4,0,0,1,.87,1.28,3.84,3.84,0,0,1,.32,1.55,3.47,3.47,0,0,1-.16,1.07,4,4,0,0,1-.42,1,3.8,3.8,0,0,1-.65.79,4.11,4.11,0,0,1-.82.62l2.12,4,.15.27a.54.54,0,0,1,.09.27.23.23,0,0,1-.09.2.32.32,0,0,1-.23.07H76.53a.38.38,0,0,1-.25-.08.37.37,0,0,1-.14-.22l-2-3.77H72.8v3.72c0,.24-.13.35-.38.35H70a.35.35,0,0,1-.26-.08.33.33,0,0,1-.1-.27ZM76.06,190a1.41,1.41,0,0,0-.09-.49,1.63,1.63,0,0,0-.25-.45,1.48,1.48,0,0,0-.4-.35,1.41,1.41,0,0,0-.51-.18l-.43,0H72.8v3h1.78l.25,0a1.23,1.23,0,0,0,.52-.17,1.17,1.17,0,0,0,.39-.34,1.61,1.61,0,0,0,.24-.45A1.82,1.82,0,0,0,76.06,190Z"/><path class="cls-1" d="M98.81,198.06a.47.47,0,0,1-.23.12.86.86,0,0,1-.22,0H97.11a.49.49,0,0,1-.25,0,.42.42,0,0,1-.18-.14.74.74,0,0,1-.13-.21,1.35,1.35,0,0,1-.08-.24l-.17-.8a2.09,2.09,0,0,1-.42.54,3.34,3.34,0,0,1-.71.52,4.17,4.17,0,0,1-1,.39,4.1,4.1,0,0,1-1.2.16,3.65,3.65,0,0,1-1.66-.36,3.74,3.74,0,0,1-1.23-1,4.44,4.44,0,0,1-.75-1.47,6,6,0,0,1-.26-1.78v-5.4a.69.69,0,0,1,.14-.47.52.52,0,0,1,.43-.16h1.91a.73.73,0,0,1,.48.12.6.6,0,0,1,.13.46v5.37a1.8,1.8,0,0,0,.51,1.24,1.6,1.6,0,0,0,.54.38,1.58,1.58,0,0,0,.65.14,2.17,2.17,0,0,0,.64-.1,2,2,0,0,0,.65-.31,1.82,1.82,0,0,0,.49-.54,1.52,1.52,0,0,0,.2-.79v-5.36a.87.87,0,0,1,0-.28.47.47,0,0,1,.16-.22l.21-.09.21,0h1.87a.66.66,0,0,1,.51.17.69.69,0,0,1,.15.46v9.22a.54.54,0,0,1-.07.29.48.48,0,0,1-.19.21Z"/><path class="cls-1" d="M109.46,187.88a.54.54,0,0,1,.23-.11l.22,0h1.25a.57.57,0,0,1,.43.2.72.72,0,0,1,.12.21l.09.24.17.72a2.23,2.23,0,0,1,.4-.53,3.12,3.12,0,0,1,.69-.49,4.28,4.28,0,0,1,.94-.37,4.94,4.94,0,0,1,1.2-.14,3.76,3.76,0,0,1,1.67.36,3.8,3.8,0,0,1,1.26,1,4.35,4.35,0,0,1,.78,1.46,5.72,5.72,0,0,1,.27,1.78v5.4a.69.69,0,0,1-.14.47.52.52,0,0,1-.43.16H116.7a.8.8,0,0,1-.48-.11.64.64,0,0,1-.13-.47v-5.37a1.45,1.45,0,0,0-.17-.67,1.76,1.76,0,0,0-.42-.56,2,2,0,0,0-.6-.38,1.63,1.63,0,0,0-.68-.14,1.44,1.44,0,0,0-.6.13,1.93,1.93,0,0,0-.57.37,2.17,2.17,0,0,0-.44.55,1.62,1.62,0,0,0-.2.69v5.35a.87.87,0,0,1,0,.28.47.47,0,0,1-.16.22l-.21.09a.72.72,0,0,1-.22,0h-1.86a.66.66,0,0,1-.51-.17.67.67,0,0,1-.16-.46v-9.22a.73.73,0,0,1,.07-.29.64.64,0,0,1,.2-.2Z"/><path class="cls-1" d="M129.78,188.55a.66.66,0,0,1-.06-.57c.07-.16.23-.24.49-.24h2.11a.7.7,0,0,1,.38.11.65.65,0,0,1,.22.33c.1.29.2.62.31,1s.23.72.36,1.1l.36,1.11.34,1q.15.47.27.81c.08.23.14.4.18.5l1.74-5.52a.85.85,0,0,1,.25-.35.69.69,0,0,1,.38-.09h1.95a1.18,1.18,0,0,1,.37,0,.35.35,0,0,1,.16.16.43.43,0,0,1,0,.23c0,.08-.05.17-.08.27l-.91,2.21c0,.1.11.25.22.48s.24.47.38.76l.43.88q.21.48.36.87l2-5.47a1,1,0,0,1,.22-.35.52.52,0,0,1,.33-.09h1.82a.77.77,0,0,1,.55.15c.1.09.1.28,0,.56l-3.87,9.4a.68.68,0,0,1-.23.25.78.78,0,0,1-.44.1h-.86a.82.82,0,0,1-.47-.1.78.78,0,0,1-.24-.27l-1.54-3.74-1.5,3.76a1.07,1.07,0,0,1-.22.25.55.55,0,0,1-.37.1h-1a.93.93,0,0,1-.47-.09.59.59,0,0,1-.2-.26Z"/><path class="cls-1" d="M154.55,184.21a.65.65,0,0,1,.15-.49.62.62,0,0,1,.46-.15h1.91a.7.7,0,0,1,.47.15.59.59,0,0,1,.18.49v1.61a.63.63,0,0,1-.05.21.71.71,0,0,1-.13.22.7.7,0,0,1-.2.18.5.5,0,0,1-.27.07h-1.91c-.41,0-.61-.23-.61-.68Zm0,4.17a.68.68,0,0,1,.15-.45.54.54,0,0,1,.46-.19h1.89a.56.56,0,0,1,.21,0,1,1,0,0,1,.22.13,1.2,1.2,0,0,1,.17.21.53.53,0,0,1,.07.26v9.19a.58.58,0,0,1-.18.47.67.67,0,0,1-.49.16h-1.89c-.41,0-.61-.21-.61-.63Z"/><path class="cls-1" d="M168.57,186.11a.46.46,0,0,1,.17-.39,2.12,2.12,0,0,1,.48-.24l1.87-.65h.15a.44.44,0,0,1,.41.18.9.9,0,0,1,.1.46v2.27h1.13a.57.57,0,0,1,.43.16.6.6,0,0,1,.17.46V190a.66.66,0,0,1-.17.5.57.57,0,0,1-.43.16h-1.13v7a.58.58,0,0,1-.18.47.72.72,0,0,1-.5.16H169.2a.56.56,0,0,1-.63-.63v-7h-.85q-.63,0-.63-.66v-1.6a.55.55,0,0,1,.63-.62h.85Z"/><path class="cls-1" d="M186.42,188.84a2.09,2.09,0,0,1,.44-.46,3.24,3.24,0,0,1,.63-.4,3.69,3.69,0,0,1,.79-.29,4,4,0,0,1,.93-.11,3.5,3.5,0,0,1,1.63.36,3.26,3.26,0,0,1,1.13,1,4.17,4.17,0,0,1,.67,1.46,6.78,6.78,0,0,1,.22,1.78v5.4a.69.69,0,0,1-.14.47.52.52,0,0,1-.43.16h-1.9a.82.82,0,0,1-.49-.11.64.64,0,0,1-.13-.47v-5.45a1.63,1.63,0,0,0-.14-.66,1.77,1.77,0,0,0-.36-.53,1.73,1.73,0,0,0-.54-.35,1.65,1.65,0,0,0-.66-.13,1.47,1.47,0,0,0-.58.12,1.57,1.57,0,0,0-.51.34,1.82,1.82,0,0,0-.56,1.19v5.44a.87.87,0,0,1,0,.28.47.47,0,0,1-.16.22l-.2.09a.78.78,0,0,1-.22,0h-1.87a.66.66,0,0,1-.51-.17.67.67,0,0,1-.15-.46V185.25a.57.57,0,0,1,.66-.62h1.87a.87.87,0,0,1,.42.13.49.49,0,0,1,.16.21.91.91,0,0,1,0,.27Z"/><path class="cls-1" d="M213,198.06a.47.47,0,0,1-.23.12.86.86,0,0,1-.22,0h-1.25a.49.49,0,0,1-.25,0,.45.45,0,0,1-.19-.14.72.72,0,0,1-.12-.21,1.35,1.35,0,0,1-.08-.24l-.17-.8a2.34,2.34,0,0,1-.42.54,3.34,3.34,0,0,1-.71.52,4.61,4.61,0,0,1-2.18.55,3.65,3.65,0,0,1-1.66-.36,3.74,3.74,0,0,1-1.23-1,4.44,4.44,0,0,1-.75-1.47,6,6,0,0,1-.26-1.78v-5.4a.69.69,0,0,1,.14-.47.52.52,0,0,1,.43-.16h1.9a.74.74,0,0,1,.49.12.6.6,0,0,1,.13.46v5.37a1.76,1.76,0,0,0,.14.68,1.92,1.92,0,0,0,.36.56,1.83,1.83,0,0,0,.54.38,1.66,1.66,0,0,0,.66.14,2.17,2.17,0,0,0,.64-.1,2,2,0,0,0,.65-.31,1.82,1.82,0,0,0,.49-.54,1.52,1.52,0,0,0,.2-.79v-5.36a.87.87,0,0,1,.05-.28.47.47,0,0,1,.16-.22l.2-.09.22,0h1.87a.66.66,0,0,1,.51.17.69.69,0,0,1,.15.46v9.22a.54.54,0,0,1-.07.29.48.48,0,0,1-.19.21Z"/><path class="cls-1" d="M225,195a2.37,2.37,0,0,0,.48.37,2.59,2.59,0,0,0,.5.25l.42.14.25,0h.4a2.33,2.33,0,0,0,.46-.08,1,1,0,0,0,.39-.2.53.53,0,0,0,.16-.4.64.64,0,0,0-.09-.36.69.69,0,0,0-.27-.23,1.66,1.66,0,0,0-.42-.17l-.57-.18a6.45,6.45,0,0,1-1.63-.63,3.62,3.62,0,0,1-1-.83,2.66,2.66,0,0,1-.52-1,4.15,4.15,0,0,1-.15-1.12,2.82,2.82,0,0,1,.27-1.24,2.87,2.87,0,0,1,.78-1,3.68,3.68,0,0,1,1.2-.62,5.44,5.44,0,0,1,1.56-.22,4.92,4.92,0,0,1,1,.09,4.39,4.39,0,0,1,.87.27,4,4,0,0,1,.8.48,6.15,6.15,0,0,1,.78.7.51.51,0,0,1,.14.3c0,.1-.05.2-.18.31l-.61.52c-.2.17-.4.36-.61.57a.5.5,0,0,1-.2.11.41.41,0,0,1-.19,0,.53.53,0,0,1-.17-.08.67.67,0,0,1-.15-.14,1.33,1.33,0,0,0-.66-.43,2.28,2.28,0,0,0-.69-.12,1.29,1.29,0,0,0-.64.14.45.45,0,0,0-.23.43.48.48,0,0,0,.16.34,1.23,1.23,0,0,0,.36.19,3.17,3.17,0,0,0,.44.12l.44.1c.49.16.94.34,1.36.52a4.28,4.28,0,0,1,1.07.69,2.75,2.75,0,0,1,.7,1,3.37,3.37,0,0,1,.25,1.38,3.27,3.27,0,0,1-.32,1.46,3.14,3.14,0,0,1-.9,1.08,4.11,4.11,0,0,1-1.34.67,6,6,0,0,1-1.68.23,6.18,6.18,0,0,1-1-.09,5.16,5.16,0,0,1-1-.29,5.09,5.09,0,0,1-.94-.52,3.84,3.84,0,0,1-.79-.77.89.89,0,0,1-.14-.25.73.73,0,0,1,0-.25.59.59,0,0,1,0-.23.55.55,0,0,1,.14-.17l1.07-1.07a.38.38,0,0,1,.35-.11A1.06,1.06,0,0,1,225,195Z"/></g></svg>